<svg viewBox="0 0 400 194.7" xmlns="http://www.w3.org/2000/svg">
  <defs>
    <linearGradient id="g" x1="0" y1="0" x2="1" y2="0">
      <stop offset="0%" stop-color="#0a6ff2"/>
      <stop offset="38%" stop-color="#2f6fd0"/>
      <stop offset="50%" stop-color="#8a5f7a"/>
      <stop offset="62%" stop-color="#e85a28"/>
      <stop offset="100%" stop-color="#ff4d0d"/>
    </linearGradient>
  </defs>
  <path fill-rule="evenodd" fill="url(#g)" d="M 101.39 194.69 L 85.71 194.69 L 66.50 191.15 L 41.21 179.01 L 32.11 171.93 L 16.69 154.49 L 3.54 126.17 L 0.51 111.00 L 0.00 89.76 L 5.06 62.96 L 12.14 46.78 L 21.24 33.12 L 33.12 20.73 L 45.76 11.63 L 62.45 4.05 L 82.17 0.00 L 103.41 0.51 L 122.63 5.56 L 141.85 15.17 L 160.56 28.82 L 203.03 71.30 L 233.88 39.95 L 258.15 19.22 L 277.88 8.09 L 303.16 1.01 L 327.43 1.52 L 353.73 11.13 L 376.23 29.58 L 387.86 46.27 L 395.95 65.49 L 400.00 85.71 L 400.00 108.47 L 396.97 124.65 L 387.86 146.90 L 378.76 160.56 L 366.88 172.95 L 351.20 184.07 L 334.51 191.15 L 319.34 194.18 L 299.12 193.68 L 281.42 189.13 L 265.23 181.54 L 246.52 168.39 L 203.54 125.41 L 168.14 161.82 L 153.48 173.96 L 127.69 188.62 L 101.39 194.69 Z M 101.14 151.45 L 116.56 147.66 L 134.77 137.55 L 151.45 123.89 L 175.98 98.36 L 146.90 71.30 L 123.14 54.61 L 102.40 46.52 L 81.67 46.52 L 62.96 54.61 L 49.56 68.52 L 41.97 87.74 L 41.97 107.96 L 48.04 125.16 L 62.45 141.59 L 81.67 150.70 L 101.14 151.45 Z M 311.50 150.95 L 329.46 146.65 L 338.56 140.58 L 346.40 132.24 L 354.99 115.55 L 357.52 103.92 L 357.52 89.76 L 350.95 69.53 L 339.57 55.63 L 321.37 46.02 L 303.67 45.01 L 285.46 50.57 L 269.79 60.18 L 229.58 98.36 L 252.09 121.37 L 275.85 140.08 L 297.60 149.68 L 311.50 150.95 Z"/>
</svg>