<?xml version="1.0" encoding="UTF-8"?>
<svg xmlns="http://www.w3.org/2000/svg" width="838" height="432" viewBox="210 331 838 432" role="img" aria-label="Breathe AI Lab infinity mark only">
  <defs>
    <path id="markPath" d="M 236.00 512.00 C 233.54 526.21, 233.59 551.38, 234.00 563.00 C 234.41 574.62, 236.95 588.25, 239.00 597.00 C 241.05 605.75, 244.63 617.57, 249.00 627.00 C 253.37 636.43, 264.44 656.84, 271.00 666.00 C 277.56 675.16, 289.76 687.44, 297.00 694.00 C 304.24 700.56, 315.12 708.94, 324.00 714.00 C 332.88 719.06, 351.20 727.58, 362.00 731.00 C 372.80 734.42, 393.02 737.91, 403.00 739.00 C 412.98 740.09, 427.07 739.55, 435.00 739.00 C 442.93 738.45, 450.61 738.28, 461.00 735.00 C 471.39 731.72, 496.65 723.34, 511.00 715.00 C 525.35 706.66, 549.33 689.03, 566.00 674.00 C 582.67 658.97, 623.02 614.43, 633.00 605.00 C 642.98 595.57, 627.93 594.61, 639.00 605.00 C 650.07 615.39, 697.74 666.24, 714.00 681.00 C 730.26 695.76, 747.61 706.58, 758.00 713.00 C 768.39 719.42, 780.84 724.72, 790.00 728.00 C 799.16 731.28, 814.89 735.63, 825.00 737.00 C 835.11 738.37, 855.39 738.41, 864.00 738.00 C 872.61 737.59, 878.30 737.28, 888.00 734.00 C 897.70 730.72, 922.70 721.79, 935.00 714.00 C 947.30 706.21, 970.07 684.79, 978.00 677.00 C 985.93 669.21, 988.76 663.83, 993.00 657.00 C 997.24 650.17, 1005.58 634.65, 1009.00 627.00 C 1012.42 619.35, 1015.95 608.93, 1018.00 601.00 C 1020.05 593.07, 1023.18 579.52, 1024.00 569.00 C 1024.82 558.48, 1024.82 534.66, 1024.00 524.00 C 1023.18 513.34, 1020.32 499.75, 1018.00 491.00 C 1015.68 482.25, 1011.78 469.70, 1007.00 460.00 C 1002.22 450.30, 989.15 428.47, 983.00 420.00 C 976.85 411.53, 968.83 403.88, 962.00 398.00 C 955.17 392.12, 941.34 381.78, 933.00 377.00 C 924.66 372.22, 910.57 365.87, 901.00 363.00 C 891.43 360.13, 872.16 356.82, 863.00 356.00 C 853.84 355.18, 841.93 356.04, 834.00 357.00 C 826.07 357.96, 816.34 358.76, 805.00 363.00 C 793.66 367.24, 763.57 380.48, 751.00 388.00 C 738.43 395.52, 728.31 403.51, 713.00 418.00 C 697.69 432.49, 649.93 483.61, 639.00 494.00 C 628.07 504.39, 644.21 504.52, 633.00 494.00 C 621.79 483.48, 574.63 432.72, 557.00 417.00 C 539.37 401.28, 516.16 386.38, 504.00 379.00 C 491.84 371.62, 477.02 366.14, 468.00 363.00 C 458.98 359.86, 447.84 357.09, 438.00 356.00 C 428.16 354.91, 404.61 354.73, 396.00 355.00 C 387.39 355.27, 381.83 356.36, 375.00 358.00 C 368.17 359.64, 352.97 364.27, 346.00 367.00 C 339.03 369.73, 330.29 374.17, 324.00 378.00 C 317.71 381.83, 306.01 389.94, 300.00 395.00 C 293.99 400.06, 286.56 406.25, 280.00 415.00 C 273.44 423.75, 258.01 445.74, 252.00 459.00 C 245.99 472.26, 238.46 497.79, 236.00 512.00 Z
M 401.00 445.00 C 408.38 443.22, 414.67 443.73, 420.00 444.00 C 425.33 444.27, 432.21 444.54, 440.00 447.00 C 447.79 449.46, 465.52 455.44, 477.00 462.00 C 488.48 468.56, 510.06 483.52, 524.00 495.00 C 537.94 506.48, 571.48 538.07, 579.00 546.00 C 586.52 553.93, 585.42 545.48, 579.00 553.00 C 572.58 560.52, 542.25 591.30, 532.00 601.00 C 521.75 610.70, 512.06 618.26, 504.00 624.00 C 495.94 629.74, 482.84 638.76, 473.00 643.00 C 463.16 647.24, 441.02 653.36, 432.00 655.00 C 422.98 656.64, 412.47 655.41, 407.00 655.00 C 401.53 654.59, 397.33 653.78, 392.00 652.00 C 386.67 650.22, 373.47 644.87, 368.00 642.00 C 362.53 639.13, 355.83 634.14, 352.00 631.00 C 348.17 627.86, 343.42 623.24, 340.00 619.00 C 336.58 614.76, 329.87 605.33, 327.00 600.00 C 324.13 594.67, 320.64 585.33, 319.00 580.00 C 317.36 574.67, 315.55 567.15, 315.00 561.00 C 314.45 554.85, 313.77 542.93, 315.00 535.00 C 316.23 527.07, 321.40 509.70, 324.00 503.00 C 326.60 496.30, 330.72 490.51, 334.00 486.00 C 337.28 481.49, 343.63 473.96, 348.00 470.00 C 352.37 466.04, 358.76 460.42, 366.00 457.00 C 373.24 453.58, 393.62 446.78, 401.00 445.00 Z
M 835.00 443.00 C 843.20 441.50, 852.94 442.59, 858.00 443.00 C 863.06 443.41, 867.49 444.50, 872.00 446.00 C 876.51 447.50, 886.49 451.54, 891.00 454.00 C 895.51 456.46, 899.94 458.81, 905.00 464.00 C 910.06 469.19, 923.08 482.57, 928.00 492.00 C 932.92 501.43, 939.50 522.20, 941.00 533.00 C 942.50 543.80, 940.09 563.07, 939.00 571.00 C 937.91 578.93, 935.46 585.26, 933.00 591.00 C 930.54 596.74, 925.10 607.26, 921.00 613.00 C 916.90 618.74, 907.24 629.04, 903.00 633.00 C 898.76 636.96, 894.24 639.68, 890.00 642.00 C 885.76 644.32, 877.33 648.36, 872.00 650.00 C 866.67 651.64, 858.24 654.00, 851.00 654.00 C 843.76 654.00, 828.57 652.87, 819.00 650.00 C 809.43 647.13, 791.52 639.29, 781.00 633.00 C 770.48 626.71, 754.44 615.07, 742.00 604.00 C 729.56 592.93, 696.97 560.20, 690.00 552.00 C 683.03 543.80, 681.71 553.84, 691.00 544.00 C 700.29 534.16, 743.38 492.30, 758.00 480.00 C 772.62 467.70, 787.48 459.06, 798.00 454.00 C 808.52 448.94, 826.80 444.50, 835.00 443.00 Z" fill-rule="evenodd"/>
    <clipPath id="markClip" clipPathUnits="userSpaceOnUse">
      <use href="#markPath"/>
    </clipPath>

    <linearGradient id="baseGradient" x1="234" y1="547.0" x2="1024" y2="547.0" gradientUnits="userSpaceOnUse">
      <stop offset="0.0%" stop-color="#02A2FC"/>
<stop offset="8.0%" stop-color="#009CFD"/>
<stop offset="18.0%" stop-color="#009EFD"/>
<stop offset="30.0%" stop-color="#008AFC"/>
<stop offset="42.0%" stop-color="#0168ED"/>
<stop offset="50.0%" stop-color="#825C92"/>
<stop offset="58.0%" stop-color="#DF5B3B"/>
<stop offset="70.0%" stop-color="#FE6903"/>
<stop offset="82.0%" stop-color="#FE6402"/>
<stop offset="92.0%" stop-color="#FE4602"/>
<stop offset="100.0%" stop-color="#FE4103"/>
    </linearGradient>

    <radialGradient id="leftCyanGlow" cx="360" cy="405" r="260" gradientUnits="userSpaceOnUse">
      <stop offset="0%" stop-color="#13C2FF" stop-opacity="0.75"/>
      <stop offset="52%" stop-color="#03A7FD" stop-opacity="0.38"/>
      <stop offset="100%" stop-color="#0072F1" stop-opacity="0"/>
    </radialGradient>
    <radialGradient id="leftDeepBlue" cx="575" cy="688" r="260" gradientUnits="userSpaceOnUse">
      <stop offset="0%" stop-color="#005FEF" stop-opacity="0.55"/>
      <stop offset="70%" stop-color="#006FF6" stop-opacity="0.16"/>
      <stop offset="100%" stop-color="#006FF6" stop-opacity="0"/>
    </radialGradient>
    <radialGradient id="centerViolet" cx="627" cy="550" r="82" gradientUnits="userSpaceOnUse">
      <stop offset="0%" stop-color="#7659B8" stop-opacity="0.82"/>
      <stop offset="57%" stop-color="#8A5B9A" stop-opacity="0.38"/>
      <stop offset="100%" stop-color="#8A5B9A" stop-opacity="0"/>
    </radialGradient>
    <radialGradient id="rightOrangeGlow" cx="830" cy="405" r="280" gradientUnits="userSpaceOnUse">
      <stop offset="0%" stop-color="#FF7E00" stop-opacity="0.62"/>
      <stop offset="62%" stop-color="#FF6400" stop-opacity="0.22"/>
      <stop offset="100%" stop-color="#FF4A00" stop-opacity="0"/>
    </radialGradient>
    <radialGradient id="rightRedEdge" cx="987" cy="700" r="230" gradientUnits="userSpaceOnUse">
      <stop offset="0%" stop-color="#FF2F00" stop-opacity="0.45"/>
      <stop offset="100%" stop-color="#FF2F00" stop-opacity="0"/>
    </radialGradient>
    <linearGradient id="subtleTopLight" x1="0" y1="355" x2="0" y2="740" gradientUnits="userSpaceOnUse">
      <stop offset="0%" stop-color="#FFFFFF" stop-opacity="0.11"/>
      <stop offset="45%" stop-color="#FFFFFF" stop-opacity="0.02"/>
      <stop offset="100%" stop-color="#000000" stop-opacity="0.04"/>
    </linearGradient>
    <filter id="softEdge" x="-3%" y="-3%" width="106%" height="106%" color-interpolation-filters="sRGB">
      <feGaussianBlur in="SourceAlpha" stdDeviation="0.22" result="blur"/>
      <feComposite in="SourceGraphic" in2="blur" operator="over"/>
    </filter>
  </defs>

  <g filter="url(#softEdge)">
    <use href="#markPath" fill="url(#baseGradient)" fill-rule="evenodd"/>
    <g clip-path="url(#markClip)">
      <rect x="210" y="331" width="838" height="432" fill="url(#leftCyanGlow)"/>
      <rect x="210" y="331" width="838" height="432" fill="url(#leftDeepBlue)"/>
      <rect x="210" y="331" width="838" height="432" fill="url(#centerViolet)"/>
      <rect x="210" y="331" width="838" height="432" fill="url(#rightOrangeGlow)"/>
      <rect x="210" y="331" width="838" height="432" fill="url(#rightRedEdge)"/>
      <rect x="210" y="331" width="838" height="432" fill="url(#subtleTopLight)"/>
    </g>
  </g>
</svg>
