<svg xmlns="http://www.w3.org/2000/svg" viewBox="0 0 1200 630" width="1200" height="630" role="img" aria-label="BreatheAI — Language, reasoning, and agents.">
  <rect width="1200" height="630" fill="#FBFBFB"></rect>
  <line x1="80" y1="120" x2="1120" y2="120" stroke="#DEDFDD" stroke-width="1"></line>
  <line x1="80" y1="510" x2="1120" y2="510" stroke="#DEDFDD" stroke-width="1"></line>

  <text x="80" y="103" font-family="&#39;Geist&#39;,ui-sans-serif,system-ui,sans-serif" font-size="16" font-weight="800" fill="#006D5B" letter-spacing="2.4">NATURAL LANGUAGE PROCESSING · NTU</text>
  <text x="1120" y="103" text-anchor="end" font-family="&#39;Geist&#39;,ui-sans-serif,system-ui,sans-serif" font-size="16" font-weight="800" fill="#72777f" letter-spacing="2">SINGAPORE · 2026</text>

  <path d="M 80 240 C 97.1 204.9, 122.8 204.9, 139 240 C 155.2 275.1, 180.9 275.1, 198 240" fill="none" stroke="#111113" stroke-width="7.6" stroke-linecap="round" stroke-linejoin="round"></path>
  <path d="M 80 240 C 97.1 275.1, 122.8 275.1, 139 240 C 155.2 204.9, 180.9 204.9, 198 240" fill="none" stroke="#111113" stroke-width="7.6" stroke-linecap="round" stroke-linejoin="round"></path>
  <path d="M 128.5 240 C 134.2 231.8, 143.8 231.8, 149.5 240 C 143.8 248.2, 134.2 248.2, 128.5 240 Z" fill="#00A887"></path>

  <text x="80" y="430" font-family="&#39;Source Serif 4&#39;,&#39;Iowan Old Style&#39;,Georgia,serif" font-size="120" font-weight="650" fill="#111113" letter-spacing="-2">BreatheAI</text>
  <text x="80" y="478" font-family="&#39;Source Serif 4&#39;,&#39;Iowan Old Style&#39;,Georgia,serif" font-size="32" font-weight="500" fill="#3F4247" font-style="italic">
    A new NLP lab at NTU — language, reasoning, agents, and beyond.
  </text>

  <text x="80" y="555" font-family="&#39;Geist&#39;,ui-sans-serif,system-ui,sans-serif" font-size="18" font-weight="700" fill="#72777f">
    Nanyang Technological University · Singapore
  </text>
</svg>
