<svg xmlns="http://www.w3.org/2000/svg" viewBox="0 0 720 540" role="img" aria-labelledby="title desc">
  <title id="title">NTU CCDS placeholder</title>
  <desc id="desc">Editorial placeholder image for a BREATHE AI Lab news item.</desc>
  <rect width="720" height="540" fill="#f5f3ec"/>
  <rect x="40" y="40" width="640" height="460" rx="18" fill="#ffffff" stroke="#1f2937" stroke-width="3"/>
  <rect x="40" y="40" width="640" height="136" rx="18" fill="#143c7d"/>
  <path d="M40 158h640v18H40z" fill="#143c7d"/>
  <circle cx="594" cy="108" r="42" fill="#f26d5b"/>
  <path d="M112 318c58-92 126-138 204-138 62 0 111 27 148 82 35 52 79 78 132 78 28 0 54-7 78-20v85c-28 11-58 17-89 17-72 0-130-29-174-87-35-47-73-70-116-70-50 0-95 35-135 106l-48 84H58l54-137z" fill="#7aa7d9"/>
  <path d="M112 318c58-92 126-138 204-138 62 0 111 27 148 82 35 52 79 78 132 78 28 0 54-7 78-20" fill="none" stroke="#16213a" stroke-width="14" stroke-linecap="round"/>
  <text x="86" y="118" fill="#ffffff" font-family="Arial, Helvetica, sans-serif" font-size="34" font-weight="700" letter-spacing=".08em">NTU CCDS</text>
  <text x="86" y="242" fill="#16213a" font-family="Optima, Optima nova, Gill Sans Nova, Gill Sans, Gill Sans MT, Candara, Trebuchet MS, Palatino Linotype, sans-serif" font-size="30" font-weight="500" letter-spacing=".07em">BREATHE AI Lab</text>
  <text x="86" y="282" fill="#4b5563" font-family="Arial, Helvetica, sans-serif" font-size="21">New faculty announcement placeholder</text>
</svg>
